<?xml version="1.0" standalone="no"?>
<!DOCTYPE svg PUBLIC "-//W3C//DTD SVG 20010904//EN"
 "http://www.w3.org/TR/2001/REC-SVG-20010904/DTD/svg10.dtd">
<svg version="1.0" xmlns="http://www.w3.org/2000/svg"
 width="450.000000pt" height="252.000000pt" viewBox="190 60 160.000000 142.000000"
 preserveAspectRatio="xMidYMid meet">

<g transform="translate(0.000000,272.000000) scale(0.100000,-0.110000)"
fill="#50C878" stroke="none">
<path d="M1783 1662 c-154 -55 -242 -196 -231 -368 8 -124 75 -225 190 -286
37 -20 57 -23 153 -23 98 0 116 3 159 25 69 36 74 47 42 103 l-27 46 -36 -25
c-113 -77 -255 -43 -323 77 -48 85 -28 222 42 285 81 74 186 76 309 7 3 -2 18
19 32 46 l27 49 -27 22 c-47 37 -94 52 -178 56 -61 4 -92 0 -132 -14z"/>
<path d="M2581 1644 c-25 -32 -25 -37 -6 -73 17 -33 56 -46 88 -30 30 16 37
28 37 65 0 63 -79 88 -119 38z"/>
<path d="M2880 1540 l0 -70 -45 0 -45 0 0 -50 0 -50 45 0 45 0 0 -140 c0 -173
9 -202 75 -231 33 -15 62 -19 108 -17 l62 3 3 50 3 51 -38 -4 c-28 -3 -46 2
-63 16 -24 19 -25 26 -29 146 l-3 126 61 0 61 0 0 50 0 50 -60 0 -60 0 0 70 0
70 -60 0 -60 0 0 -70z"/>
<path d="M3270 1540 l0 -70 -45 0 -45 0 0 -50 0 -50 45 0 45 0 0 -137 c0 -152
10 -188 62 -226 29 -22 119 -34 163 -23 23 6 25 11 25 56 l0 50 -43 0 c-70 0
-77 15 -77 158 l0 122 60 0 60 0 0 50 0 50 -60 0 -60 0 0 70 0 70 -65 0 -65 0
0 -70z"/>
<path d="M2364 1435 l-44 -45 0 40 0 40 -60 0 -60 0 0 -240 0 -240 60 0 60 0
0 118 c1 146 10 189 50 225 24 21 40 27 76 27 l45 0 -3 58 -3 57 -39 3 c-34 3
-43 -1 -82 -43z"/>
<path d="M3802 1455 c-17 -14 -34 -35 -37 -45 -11 -34 -25 -22 -25 20 l0 40
-60 0 -60 0 0 -240 0 -240 65 0 65 0 -1 139 c0 109 3 146 15 170 24 46 58 64
111 59 l46 -3 -3 60 -3 60 -41 3 c-33 2 -48 -2 -72 -23z"/>
<path d="M2570 1230 l0 -240 65 0 65 0 0 240 0 240 -65 0 -65 0 0 -240z"/>
</g>
</svg>
