<?xml version="1.0" standalone="no"?>
<!DOCTYPE svg PUBLIC "-//W3C//DTD SVG 20010904//EN"
 "http://www.w3.org/TR/2001/REC-SVG-20010904/DTD/svg10.dtd">
<svg version="1.0" xmlns="http://www.w3.org/2000/svg"
 width="450.000000pt" height="272.000000pt" viewBox="0 0 450.000000 272.000000"
 preserveAspectRatio="xMidYMid meet">

<g transform="translate(0.000000,272.000000) scale(0.100000,-0.100000)"
fill="#50C878" stroke="none">
<path d="M900 1807 c-122 -36 -243 -134 -302 -243 -56 -103 -76 -258 -48 -374
40 -172 177 -317 344 -365 92 -27 224 -17 308 22 68 32 138 87 138 108 0 7
-23 33 -50 59 l-51 47 -37 -29 c-71 -56 -101 -67 -187 -67 -64 0 -89 5 -124
24 l-44 23 42 18 c22 11 41 23 41 27 0 4 7 16 14 25 11 15 18 16 43 8 25 -9
29 -15 25 -39 -5 -35 16 -80 28 -60 7 10 11 10 25 -1 12 -10 19 -10 27 -2 8 8
4 14 -15 23 -35 16 -34 25 3 38 31 10 38 25 19 36 -6 4 -22 -4 -36 -16 -25
-23 -25 -23 -14 -2 16 30 14 63 -4 68 -51 16 -50 14 -22 43 15 16 27 33 27 40
0 15 3 15 33 1 18 -8 30 -8 48 1 20 11 25 10 37 -9 19 -29 34 -27 26 4 -4 17
-2 25 7 25 22 0 42 17 35 28 -5 8 -15 8 -31 2 -25 -10 -33 -2 -16 16 5 5 12
19 16 32 5 16 2 22 -9 22 -9 0 -20 -14 -25 -32 -9 -31 -10 -31 -16 -10 -10 31
-26 28 -23 -5 2 -22 -1 -28 -17 -28 -17 0 -20 6 -19 42 1 37 7 48 52 91 44 40
52 54 52 84 0 47 -21 63 -86 63 -63 0 -100 -28 -110 -84 -8 -46 -21 -61 -50
-61 -17 0 -24 6 -24 20 0 11 7 23 15 26 25 10 17 27 -10 20 -23 -6 -24 -5 -13
19 13 28 6 40 -17 32 -8 -4 -15 -18 -15 -32 0 -22 -2 -24 -20 -13 -29 18 -37
1 -12 -25 12 -13 22 -31 22 -41 0 -10 9 -25 20 -34 20 -17 20 -19 4 -74 -14
-49 -20 -58 -40 -58 -12 0 -29 -3 -38 -6 -12 -5 -14 1 -9 31 5 30 3 37 -8 33
-8 -3 -16 -20 -19 -39 -5 -33 -6 -33 -18 -11 -7 12 -19 22 -27 22 -21 0 -19
-14 5 -35 18 -16 19 -20 5 -28 -8 -4 -13 -12 -10 -18 9 -13 69 -11 83 3 8 8
14 5 22 -16 13 -35 -1 -63 -37 -72 -36 -9 -54 4 -83 62 -22 42 -25 62 -25 149
0 89 3 106 27 155 59 119 165 191 280 191 80 0 122 -13 169 -51 21 -16 44 -30
51 -30 18 0 98 81 98 100 0 22 -60 66 -138 103 -57 27 -80 32 -157 34 -53 2
-108 -3 -135 -10z m210 -335 c0 -13 -12 -22 -22 -16 -10 6 -1 24 13 24 5 0 9
-4 9 -8z"/>
<path d="M1783 1662 c-154 -55 -242 -196 -231 -368 8 -124 75 -225 190 -286
37 -20 57 -23 153 -23 98 0 116 3 159 25 69 36 74 47 42 103 l-27 46 -36 -25
c-113 -77 -255 -43 -323 77 -48 85 -28 222 42 285 81 74 186 76 309 7 3 -2 18
19 32 46 l27 49 -27 22 c-47 37 -94 52 -178 56 -61 4 -92 0 -132 -14z"/>
<path d="M2581 1644 c-25 -32 -25 -37 -6 -73 17 -33 56 -46 88 -30 30 16 37
28 37 65 0 63 -79 88 -119 38z"/>
<path d="M2880 1540 l0 -70 -45 0 -45 0 0 -50 0 -50 45 0 45 0 0 -140 c0 -173
9 -202 75 -231 33 -15 62 -19 108 -17 l62 3 3 50 3 51 -38 -4 c-28 -3 -46 2
-63 16 -24 19 -25 26 -29 146 l-3 126 61 0 61 0 0 50 0 50 -60 0 -60 0 0 70 0
70 -60 0 -60 0 0 -70z"/>
<path d="M3270 1540 l0 -70 -45 0 -45 0 0 -50 0 -50 45 0 45 0 0 -137 c0 -152
10 -188 62 -226 29 -22 119 -34 163 -23 23 6 25 11 25 56 l0 50 -43 0 c-70 0
-77 15 -77 158 l0 122 60 0 60 0 0 50 0 50 -60 0 -60 0 0 70 0 70 -65 0 -65 0
0 -70z"/>
<path d="M2364 1435 l-44 -45 0 40 0 40 -60 0 -60 0 0 -240 0 -240 60 0 60 0
0 118 c1 146 10 189 50 225 24 21 40 27 76 27 l45 0 -3 58 -3 57 -39 3 c-34 3
-43 -1 -82 -43z"/>
<path d="M3802 1455 c-17 -14 -34 -35 -37 -45 -11 -34 -25 -22 -25 20 l0 40
-60 0 -60 0 0 -240 0 -240 65 0 65 0 -1 139 c0 109 3 146 15 170 24 46 58 64
111 59 l46 -3 -3 60 -3 60 -41 3 c-33 2 -48 -2 -72 -23z"/>
<path d="M2570 1230 l0 -240 65 0 65 0 0 240 0 240 -65 0 -65 0 0 -240z"/>
</g>
</svg>
